<?xml version="1.0" encoding="iso-8859-1"?>
<!-- Generator: Adobe Illustrator 17.1.0, SVG Export Plug-In . SVG Version: 6.00 Build 0)  -->
<!DOCTYPE svg PUBLIC "-//W3C//DTD SVG 1.1//EN" "http://www.w3.org/Graphics/SVG/1.1/DTD/svg11.dtd">
<svg version="1.1" id="Layer_1" xmlns="http://www.w3.org/2000/svg" xmlns:xlink="http://www.w3.org/1999/xlink" x="0px" y="0px"
	 viewBox="0 0 943.393 321.329" style="enable-background:new 0 0 943.393 321.329;" xml:space="preserve">
<path style="fill:#BA3A3A;" d="M163.336,142.97c7.584-4.69,12.483-10.152,14.699-16.386c2.215-6.232,3.324-16.8,3.324-31.7v-5.611
	h-39.418v18.095c0,7.904-0.454,12.925-1.358,15.065c-0.906,2.139-2.825,3.208-5.758,3.208c-3.059,0-5.025-1.067-5.899-3.202
	c-0.875-2.133-1.311-6.697-1.311-13.693V41.879c0-7.291,0.436-12.032,1.311-14.226c0.874-2.193,2.933-3.29,6.18-3.29
	c2.87,0,4.728,0.903,5.57,2.706c0.843,1.805,1.265,6.346,1.265,13.62V65.71h39.418V52.034c0-13.437-1.187-23.337-3.558-29.702
	c-2.373-6.362-7.335-11.676-14.887-15.939C155.36,2.131,145.779,0,134.17,0c-8.553,0-16.121,1.377-22.706,4.133
	c-6.586,2.757-11.736,6.535-15.448,11.337c-3.715,4.803-5.946,9.797-6.696,14.984c-0.749,5.187-1.123,12.968-1.123,23.341v42.059
	c0,14.108,1.217,24.674,3.652,31.699c2.434,7.024,7.397,12.523,14.886,16.494c7.491,3.971,17.01,5.957,28.558,5.957
	C146.403,150.004,155.751,147.659,163.336,142.97z"/>
<path style="fill:#BA3A3A;" d="M232.201,100.387c0-11.44,0.374-18.746,1.124-21.918c0.748-3.17,2.745-5.646,5.992-7.425
	c3.244-1.778,8.333-2.666,15.261-2.666V26.852c-10.425,0.656-18.383,6.54-23.876,17.652l1.499-15.517h-37.827v117.995h37.827
	V100.387z"/>
<path style="fill:#BA3A3A;" d="M270.823,138.578c3.214,3.528,7.725,6.166,13.53,7.915c5.804,1.747,12.888,2.622,21.254,2.622
	c7.49,0,14.121-1.021,19.896-3.067c5.773-2.045,10.501-5.216,14.185-9.515c3.682-4.296,6.086-8.921,7.209-13.871
	c1.124-4.948,1.685-12.729,1.685-23.34V70.423c0-8.358-0.608-14.583-1.826-18.673c-1.216-4.091-3.479-8.062-6.787-11.916
	c-3.31-3.852-8.006-6.978-14.091-9.38c-6.086-2.401-13.375-3.602-21.863-3.602c-10.112,0-18.414,1.867-24.905,5.603
	c-6.493,3.734-10.987,8.685-13.483,14.849c-2.498,6.165-3.746,14.731-3.746,25.697v30.233c0,10.018,0.687,17.532,2.06,22.54
	C265.314,130.785,267.607,135.052,270.823,138.578z M299.708,61.531c0-6.046,0.375-9.855,1.124-11.426
	c0.748-1.57,2.247-2.356,4.494-2.356c2.247,0,3.713,0.786,4.4,2.356c0.686,1.571,1.03,5.38,1.03,11.426v54.417
	c0,5.1-0.36,8.419-1.076,9.96c-0.719,1.542-2.201,2.311-4.448,2.311c-2.185,0-3.652-0.844-4.4-2.534
	c-0.749-1.689-1.124-5.32-1.124-10.891V61.531z"/>
<path style="fill:#BA3A3A;" d="M382.195,95.054c13.232,6.994,20.566,11.203,22.003,12.625c1.372,1.424,2.06,4.951,2.06,10.582
	c0,4.09-0.531,6.773-1.592,8.047c-1.062,1.276-2.935,1.912-5.618,1.912c-2.497,0-4.166-0.948-5.009-2.845
	c-0.842-1.897-1.264-6.016-1.264-12.36v-7.469h-33.519v5.69c0,9.841,1.278,17.193,3.838,22.053
	c2.559,4.86,7.257,8.713,14.091,11.559c6.836,2.845,15.058,4.267,24.672,4.267c8.675,0,16.089-1.32,22.237-3.956
	c6.148-2.637,10.533-6.403,13.155-11.293c2.622-4.89,3.932-12.137,3.932-21.74c0-8.595-1.717-15.145-5.148-19.651
	c-3.435-4.505-10.644-9.307-21.629-14.405c-8.24-3.853-13.687-6.788-16.339-8.803c-2.654-2.014-4.245-3.867-4.775-5.557
	c-0.531-1.689-0.796-4.342-0.796-7.959c0-2.667,0.53-4.667,1.592-6.002c1.06-1.333,2.652-2,4.775-2c2.622,0,4.26,0.726,4.916,2.178
	c0.655,1.454,0.983,4.905,0.983,10.36v6.402h33.52V59.84c0-5.926-0.328-10.283-0.984-13.07c-0.656-2.786-2.528-5.809-5.618-9.069
	c-3.09-3.261-7.522-5.883-13.295-7.87c-5.774-1.985-12.781-2.98-21.02-2.98c-8.303,0-15.589,1.217-21.863,3.647
	c-6.273,2.431-10.72,5.884-13.342,10.359c-2.622,4.475-3.933,11.426-3.933,20.851c0,6.64,1.218,12.375,3.652,17.205
	C364.312,83.748,371.084,89.126,382.195,95.054z"/>
<path style="fill:#BA3A3A;" d="M472.455,95.054c13.232,6.994,20.564,11.203,22.004,12.625c1.371,1.424,2.059,4.951,2.059,10.582
	c0,4.09-0.53,6.773-1.591,8.047c-1.061,1.276-2.935,1.912-5.618,1.912c-2.498,0-4.166-0.948-5.01-2.845
	c-0.842-1.897-1.264-6.016-1.264-12.36v-7.469h-33.519v5.69c0,9.841,1.278,17.193,3.838,22.053
	c2.559,4.86,7.256,8.713,14.091,11.559c6.836,2.845,15.058,4.267,24.672,4.267c8.675,0,16.088-1.32,22.236-3.956
	c6.148-2.637,10.535-6.403,13.156-11.293c2.62-4.89,3.932-12.137,3.932-21.74c0-8.595-1.717-15.145-5.149-19.651
	c-3.433-4.505-10.644-9.307-21.629-14.405c-8.239-3.853-13.686-6.788-16.338-8.803c-2.653-2.014-4.246-3.867-4.775-5.557
	c-0.531-1.689-0.796-4.342-0.796-7.959c0-2.667,0.53-4.667,1.592-6.002c1.06-1.333,2.653-2,4.775-2c2.622,0,4.26,0.726,4.916,2.178
	c0.655,1.454,0.982,4.905,0.982,10.36v6.402h33.519V59.84c0-5.926-0.328-10.283-0.982-13.07c-0.656-2.786-2.528-5.809-5.62-9.069
	c-3.088-3.261-7.52-5.883-13.294-7.87c-5.773-1.985-12.78-2.98-21.02-2.98c-8.303,0-15.59,1.217-21.863,3.647
	c-6.274,2.431-10.72,5.884-13.343,10.359c-2.62,4.475-3.932,11.426-3.932,20.851c0,6.64,1.218,12.375,3.653,17.205
	C454.572,83.748,461.344,89.126,472.455,95.054z"/>
<polygon style="fill:#BA3A3A;" points="582.096,86.518 606.438,86.518 606.438,59.129 582.096,59.129 582.096,31.832 
	609.434,31.832 609.434,3.023 542.677,3.023 542.677,146.981 582.096,146.981 "/>
<rect x="617.86" y="3.023" style="fill:#BA3A3A;" width="38.95" height="18.762"/>
<rect x="617.86" y="28.986" style="fill:#BA3A3A;" width="38.95" height="117.995"/>
<path style="fill:#BA3A3A;" d="M672.355,110.437c0,11.736,0.341,19.191,1.029,22.362c0.686,3.172,2.436,5.989,5.244,8.447
	c2.809,2.461,6.053,4.032,9.735,4.712c3.683,0.684,9.832,1.023,18.447,1.023h15.262v-19.028c-6.182,0-9.692-0.444-10.534-1.334
	c-0.844-0.889-1.266-5.216-1.266-12.982V50.506h10.206V31.832h-10.206V13.249h-37.918v18.583h-8.147v18.674h8.147V110.437z"/>
<rect x="15.632" y="76.135" style="fill:#010101;" width="67.753" height="10.926"/>
<path style="fill:#010101;" d="M943.393,86.038L783.517,27.082v0.911l21.179,51.216h-85.542v10.926h84.961l-20.599,45.982
	L943.393,86.038z M916.067,84.673l-104.986-1.366l-4.793-9.561L916.067,84.673z"/>
<path style="fill:#AC9369;" d="M89.618,232.455c-16.397,0.526-45.29,1.258-45.29,1.258l-5.726,0.186c0,0-8.305,0.65-8.436-6.089
	c-0.138-6.747,1.496-32.255,1.496-32.255s-1.436-6.702,11.857-6.743c13.293-0.041,22.921-0.351,22.921-0.351
	s11.867-2.115,11.177,8.319c-0.692,10.433-0.364,16.015-0.364,16.015l26.825-0.476l-1.952-33.294c0,0,3.529-10.913-17.06-10.831
	c-20.593,0.085-66.706,0.6-66.706,0.6s-16.358,1.101-16.62,14.417C1.478,196.524,0,242.463,0,242.463s-1.507,14.32,17.219,13.522
	c18.722-0.792,51.521-1.648,51.521-1.648s7.5-1.014,6.99,8.065c-0.512,9.078-0.219,27.388-0.219,27.388s2.919,5.307-10.624,5.547
	c-13.543,0.24-28.882,0.93-28.882,0.93c-6.491,0.789-6.578-0.487-7.331-9.407c-0.375-4.446-0.502-6.369-0.526-7.124L-0.4,280.076
	l0.46,30.068c0,0,0.632,6.342,11.052,6.203c10.418-0.143,78.436-0.592,78.436-0.592s13.272-0.426,13.51-9.688
	c0.238-9.262,1.184-64.249,1.184-64.249S106.01,231.929,89.618,232.455z"/>
<path style="fill:#AC9369;" d="M197.079,169.349c-9.373,0.203-50.818-0.155-50.818-0.155l-2.602,0.057l0.078,2.018
	c0,0-5.054,3.965-7.564-0.222c0,0-0.107-2.697-3.23-2.628c-3.126,0.068-24.151-0.835-24.173,1.583l-1.367,143.807
	c0,0,0.336,1.916,3.598,2.04c3.26,0.122,19.395-0.419,19.395-0.419s4.657-0.872,4.791-4.15c0.128-3.279,0.338-50.887,0.338-50.887
	s-1.439-3.439,5.323-3.778c6.761-0.341,56.273-0.247,56.273-0.247s7.824,0.217,8.346-6.35l-0.238-72.173
	C205.229,177.845,206.45,169.148,197.079,169.349z M177.786,195.822l-0.32,34.291l-0.039,2.506l-0.026,1.543
	c0,0,0.751,2.703-5.487,1.873l-31.776-0.146c0,0-2.865,0.029-2.819-2.668c0.042-2.694,0.635-38.718,0.635-38.718
	s-0.489-1.932,4.198-1.891l34.118,0.309C176.27,192.922,178.878,192.752,177.786,195.822z"/>
<path style="fill:#AC9369;" d="M303.902,174.22c0,0,0.543-3.87-7.239-3.077l-78.959,0.288c0,0-8.814-1.109-8.843,5.451
	l-0.579,136.303c0,0-0.841,3.892,5.685,4.092c6.524,0.205,83.896-0.612,83.896-0.612s4.694,0.06,4.746-3.988
	c0.053-4.054-0.651-12.711-0.651-12.711s0.837-4.065-10.886-3.932c-11.725,0.13-43.234,0.631-43.234,0.631s-9.44-1.081-8.28-9.02
	l-1.186-23.105c0,0-1.846-5.537,7.291-5.213l23.175-0.455c0,0,8.33-0.239,7.762-6.197l-0.312-11.171c0,0-0.505-4.806-5.722-4.853
	l-25.274,0.133c0,0-5.196,0.334-4.971-5.456l0.176-32.197c0,0-0.758-4.608,7.822-5.038l51.041-0.853c0,0,7.065,0.568,4.96-4.961
	L303.902,174.22z"/>
<path style="fill:#AC9369;" d="M378.199,177.865c0,0,0.314-5.929-5.616-6.23c-5.931-0.306-30.874,1.088-30.874,1.088
	s-4.836-0.144-5.475,2.703l-29.909,133.549c0,0-4.113,5.936,3.309,7.792c7.42,1.857,20.997,2.155,20.997,2.155
	s8.459,1.753,9.068-4.953l5.614-26.172c0,0,1.139-3.895,6.012-3.806c4.871,0.081,14.618,0.252,14.618,0.252s5.963,0.815,6.625,5.685
	l6.181,25.746c0,0,1.305,4.074,6.179,4.158c4.873,0.082,23.241-0.82,23.241-0.82s5.179-0.566,1.712-5.783L378.199,177.865z
	 M359.399,263.645l-7.286,0.258c-4.561-0.611-2.76-5.043-2.76-5.043l7.886-28.689c0,0,5.098,25.14,7.147,29.955
	C366.434,264.938,359.399,263.645,359.399,263.645z"/>
<path style="fill:#AC9369;" d="M497.039,258.902l8.905-2.084c0,0,11.358-1.811,9.749-10.563l-1.979-63c0,0-1.836-12.28-14.953-10.79
	l-43.711,1.484c0,0-2.572,3.238-5.677,3.603c0,0-4.946-1.233-5.077-3.225c0,0-0.492-2.234-6.041-2.04
	c-5.551,0.197-21.853,0.771-21.853,0.771s-1.926-0.144-1.933,2.385l-0.375,139.648c0,0-1.437,4.677,5.033,5.217
	c6.467,0.545,18.558-0.654,18.558-0.654s7.712,1.015,6.522-6.658c-1.189-7.668-1.032-42.905-1.032-42.905s-0.181-8.226,7.448-8.493
	c7.634-0.269,8.247,3.821,9.056,5.596c0.809,1.771,22.427,51.242,22.427,51.242s-0.122,3.514,8.188,2.965l18.387-0.641
	c0,0,10.174,1.43,4.671-8.404l-20.009-46.095C493.344,266.261,489.491,260.428,497.039,258.902z M482.899,239.115
	c0,0-27.732,1.234-33.301,1.174c-5.57-0.057-4.702-8.157-4.702-8.157l-0.921-30.474c0.623-6.449,6.937-5.644,6.937-5.644
	l31.913-1.188c5.193-0.244,4.75,8.961,4.75,8.961l0.721,32.732C488.471,239.256,482.899,239.115,482.899,239.115z"/>
<path style="fill:#AC9369;" d="M617.18,175.789c0,0,0.74-4.656-6.558-4.653c-7.303,0-15.961,0.562-15.961,0.562
	s-9.464-1.214-8.007,5.166l0.195,56.938c0,0,1.364,4.982-8.018,5.057c-9.381,0.072-18.053,0.381-18.053,0.381
	s-9.631,1.598-9.656-4.176c-0.027-5.768,0.148-56.952,0.148-56.952s1.601-7.51-8.791-6.888c-10.386,0.625-14.915,0.521-14.915,0.521
	s-7.349-0.777-7.364,4.381l-0.342,140.164c0,0,0.35,5.381,5.064,5.732c4.715,0.349,19.594-0.694,19.594-0.694
	s7.336,0.514,5.057-7.892l0.624-44.253c0,0,0.908-7.49,6.815-7.44c5.914,0.045,23.243-0.818,23.243-0.818s6.473-2.03,6.671,6.449
	l1.425,48.947c0,0-1.067,5.039,4.136,4.855l21.507-0.755c0,0,6.661,0.792,4.79-6.598L617.18,175.789z"/>
<path style="fill:#AC9369;" d="M911.358,172.171l-36.686,1.297c0,0-3.843,1.101-5.079,2.106l-4.337,1.506
	c0,0-2.896-0.479-3.329-3.162c0,0-1.006-3.437-6.717-3.041c-5.709,0.395-18.994,0.66-18.994,0.66s-6.886,0.896-5.732,5.354
	l0.979,139.087c0,0-3.008,7.31,8.442,6.899c11.451-0.402,17.343-0.607,17.343-0.607s6.161-1.506,6.757-3.07
	c0.595-1.564,5.878-0.463,7.382,1.28c1.505,1.751,3.967,2.173,6.41,2.349c2.446,0.17,38.504-1.363,38.504-1.363
	s19.308-2.479,18.778-16.092c-0.53-13.61-2.562-115.111-2.562-115.111S933.074,173.335,911.358,172.171z M896.077,299.04
	l-24.965,1.052c0,0-9.821,1.332-9.526-6.201c0.293-7.535-0.473-92.172-0.473-92.172s0.981-5.049,8.843-4.361l29.661-1.051
	c0,0,7.766-0.85,6.352,5.563l0.551,89.278C906.52,291.148,908.145,300.156,896.077,299.04z"/>
<path style="fill:#AC9369;" d="M719.358,176.037c0,0,0.543-3.87-7.238-3.072l-78.96,0.284c0,0-8.81-1.108-8.841,5.45l-0.58,136.307
	c0,0-0.842,3.889,5.684,4.09c6.532,0.204,83.896-0.615,83.896-0.615s4.696,0.057,4.75-3.99c0.051-4.051-0.647-12.705-0.647-12.705
	s0.833-4.072-10.889-3.936c-11.723,0.135-43.233,0.631-43.233,0.631s-9.447-1.08-8.283-9.019l-1.188-23.1
	c0,0-1.844-5.539,7.295-5.219l23.173-0.455c0,0,8.332-0.235,7.763-6.195l-0.311-11.172c0,0-0.503-4.807-5.721-4.852l-25.276,0.131
	c0,0-5.193,0.34-4.97-5.451l0.177-32.199c0,0-0.758-4.605,7.819-5.041l51.041-0.85c0,0,7.068,0.567,4.959-4.965L719.358,176.037z"/>
<path style="fill:#AC9369;" d="M793.657,179.684c0,0,0.314-5.926-5.614-6.231c-5.935-0.303-30.876,1.09-30.876,1.09
	s-4.836-0.144-5.473,2.701L721.78,310.791c0,0-4.109,5.936,3.315,7.797c7.419,1.856,20.995,2.151,20.995,2.151
	s8.461,1.754,9.069-4.951l5.614-26.17c0,0,1.138-3.894,6.011-3.812c4.873,0.088,14.614,0.254,14.614,0.254s5.964,0.818,6.631,5.681
	l6.18,25.751c0,0,1.306,4.072,6.174,4.161c4.873,0.078,23.245-0.825,23.245-0.825s5.18-0.565,1.714-5.783L793.657,179.684z
	 M774.855,265.46l-7.284,0.261c-4.562-0.608-2.758-5.045-2.758-5.045l7.881-28.685c0,0,5.1,25.138,7.153,29.952
	C781.893,266.756,774.855,265.46,774.855,265.46z"/>
</svg>
