<?xml version="1.0" encoding="utf-8"?>
<!-- Generator: Adobe Illustrator 19.1.0, SVG Export Plug-In . SVG Version: 6.00 Build 0)  -->
<!DOCTYPE svg PUBLIC "-//W3C//DTD SVG 1.1//EN" "http://www.w3.org/Graphics/SVG/1.1/DTD/svg11.dtd">
<svg version="1.1" id="Layer_1" xmlns="http://www.w3.org/2000/svg" xmlns:xlink="http://www.w3.org/1999/xlink" x="0px" y="0px"
	 viewBox="427 -115.3 943.4 239" style="enable-background:new 427 -115.3 943.4 239;" xml:space="preserve">
<style type="text/css">
	.st0{fill:#404041;}
</style>
<path class="st0" d="M692.4-49.7l10,7.1c-3.1,4.2-6.8,7.3-11.2,9.2c-4.4,1.9-9.1,2.9-14.1,2.9c-5.2,0-10.1-0.8-14.4-2.5
	c-4.4-1.7-8.2-4.1-11.3-7.2c-3.2-3.1-5.6-6.8-7.4-11.2c-1.8-4.4-2.7-9.2-2.7-14.5c0-5.4,0.9-10.4,2.7-14.8c1.8-4.4,4.3-8.2,7.4-11.4
	c3.2-3.1,6.9-5.6,11.3-7.2c4.4-1.7,9.2-2.5,14.4-2.5c4.6,0,8.9,0.8,12.8,2.4c3.9,1.6,7.6,4.4,11,8.3l-9.4,6.9
	c-2.5-2.7-4.9-4.5-7.2-5.4c-2.3-0.9-4.7-1.3-7.1-1.3c-3.5,0-6.7,0.6-9.6,1.9c-2.8,1.2-5.3,3-7.3,5.2c-2,2.2-3.6,4.8-4.8,7.7
	c-1.1,2.9-1.7,6.1-1.7,9.5c0,3.6,0.6,7,1.7,10.1c1.1,3.1,2.7,5.7,4.8,8c2,2.2,4.5,4,7.3,5.3c2.8,1.3,6,1.9,9.6,1.9
	c2.8,0,5.4-0.7,8-2C687.7-44.7,690.1-46.8,692.4-49.7z M762.9-62.3l18,30h-14.6L750.7-61h-8.8v28.8h-12.1v-68h23.6
	c3.3,0,6.4,0.3,9.5,0.9c3,0.6,5.7,1.6,8.1,3.1c2.4,1.5,4.3,3.5,5.7,6c1.4,2.5,2.1,5.7,2.1,9.5c0,4.9-1.4,9.1-4.1,12.4
	C771.9-65,768-63,762.9-62.3z M761.2-72.8c1.4-0.6,2.6-1.5,3.5-2.8c0.9-1.2,1.3-3,1.3-5.2c0-2-0.4-3.6-1.2-4.8
	c-0.8-1.2-1.9-2.1-3.3-2.7c-1.3-0.6-2.8-1-4.5-1.2c-1.6-0.2-3.2-0.3-4.8-0.3h-10.5v18.4h9.4c1.7,0,3.5-0.1,5.2-0.2
	C758.1-71.8,759.7-72.2,761.2-72.8z M867.7-40.6c-3.2,3.1-7,5.6-11.4,7.3c-4.4,1.8-9.3,2.7-14.6,2.7c-5.2,0-10.1-0.8-14.4-2.5
	c-4.4-1.7-8.2-4.1-11.3-7.2c-3.2-3.1-5.6-6.8-7.4-11.2c-1.8-4.4-2.7-9.2-2.7-14.5c0-5.4,0.9-10.4,2.7-14.8c1.8-4.4,4.3-8.2,7.4-11.4
	c3.2-3.1,6.9-5.6,11.3-7.2c4.4-1.7,9.2-2.5,14.4-2.5c5.3-0.1,10.2,0.7,14.6,2.4c4.4,1.6,8.2,4,11.4,7.2c3.2,3.1,5.7,6.9,7.5,11.3
	c1.8,4.4,2.7,9.3,2.7,14.8c0,5.3-0.9,10.1-2.7,14.5C873.4-47.5,870.9-43.7,867.7-40.6z M865.2-66.7c0-3.4-0.6-6.6-1.7-9.5
	c-1.1-2.9-2.7-5.5-4.8-7.7c-2-2.2-4.5-3.9-7.4-5.2c-2.9-1.2-6.1-1.9-9.6-1.9c-3.5,0-6.7,0.6-9.6,1.9c-2.8,1.2-5.3,3-7.3,5.2
	c-2,2.2-3.6,4.8-4.8,7.7c-1.1,2.9-1.7,6.1-1.7,9.5c0,3.6,0.6,7,1.7,10.1c1.1,3.1,2.7,5.7,4.8,8c2,2.2,4.5,4,7.3,5.3
	c2.8,1.3,6,1.9,9.6,1.9c3.5,0,6.7-0.6,9.6-1.9c2.9-1.3,5.3-3,7.4-5.3c2-2.2,3.6-4.9,4.8-8C864.6-59.7,865.2-63.1,865.2-66.7z
	 M942.7-67.8c-2.4-1.5-5-2.6-7.8-3.5c-2.8-0.8-5.4-1.7-7.8-2.6c-2.4-0.9-4.4-2-6-3.2c-1.6-1.2-2.4-3-2.4-5.3c0-1.5,0.3-2.9,1-4
	c0.6-1.1,1.5-2,2.5-2.7c1.1-0.7,2.2-1.2,3.6-1.5c1.3-0.3,2.7-0.5,4.1-0.5c2.4,0,4.6,0.4,6.8,1.3c2.1,0.9,3.9,2.2,5.1,4.1l8.8-9.3
	c-2.7-2.5-5.7-4.3-9.1-5.4c-3.4-1.1-6.8-1.6-10.4-1.6c-3.1,0-6.2,0.4-9.2,1.2c-3,0.8-5.7,2.1-8,3.8c-2.3,1.7-4.2,3.8-5.7,6.4
	c-1.4,2.6-2.2,5.6-2.2,9.1c0,4,0.8,7.2,2.4,9.6c1.6,2.4,3.6,4.3,6,5.8c2.4,1.4,5,2.6,7.8,3.4c2.8,0.8,5.4,1.7,7.8,2.6
	c2.4,0.9,4.4,2.1,6,3.4c1.6,1.3,2.4,3.3,2.4,5.8c0,1.5-0.4,2.9-1.1,4.1c-0.7,1.2-1.6,2.2-2.8,2.9c-1.2,0.8-2.4,1.3-3.8,1.7
	c-1.4,0.4-2.8,0.6-4.2,0.6c-2.7,0-5.2-0.6-7.6-1.9c-2.4-1.2-4.3-3-5.8-5.2l-9.1,8.8c2.8,3.3,6.2,5.7,10.1,7.1
	c3.9,1.4,8,2.1,12.2,2.1c3.3,0,6.5-0.4,9.5-1.3c3-0.9,5.6-2.2,7.9-4c2.3-1.8,4.1-4,5.4-6.8c1.3-2.7,2-5.9,2-9.6c0-4-0.8-7.3-2.4-9.7
	C947.1-64.3,945.1-66.3,942.7-67.8z M1017-67.8c-2.4-1.5-5-2.6-7.8-3.5c-2.8-0.8-5.4-1.7-7.8-2.6c-2.4-0.9-4.4-2-6-3.2
	c-1.6-1.2-2.4-3-2.4-5.3c0-1.5,0.3-2.9,1-4c0.6-1.1,1.5-2,2.5-2.7c1.1-0.7,2.2-1.2,3.6-1.5c1.3-0.3,2.7-0.5,4.1-0.5
	c2.4,0,4.6,0.4,6.8,1.3c2.1,0.9,3.9,2.2,5.1,4.1l8.8-9.3c-2.7-2.5-5.7-4.3-9.1-5.4c-3.4-1.1-6.8-1.6-10.4-1.6
	c-3.1,0-6.2,0.4-9.2,1.2c-3,0.8-5.7,2.1-8,3.8c-2.3,1.7-4.2,3.8-5.7,6.4c-1.4,2.6-2.2,5.6-2.2,9.1c0,4,0.8,7.2,2.4,9.6
	c1.6,2.4,3.6,4.3,6,5.8c2.4,1.4,5,2.6,7.8,3.4c2.8,0.8,5.4,1.7,7.8,2.6c2.4,0.9,4.4,2.1,6,3.4c1.6,1.3,2.4,3.3,2.4,5.8
	c0,1.5-0.4,2.9-1.1,4.1c-0.7,1.2-1.6,2.2-2.8,2.9c-1.2,0.8-2.4,1.3-3.8,1.7c-1.4,0.4-2.8,0.6-4.2,0.6c-2.7,0-5.2-0.6-7.6-1.9
	c-2.4-1.2-4.3-3-5.8-5.2l-9.1,8.8c2.8,3.3,6.2,5.7,10.1,7.1c3.9,1.4,8,2.1,12.2,2.1c3.3,0,6.5-0.4,9.5-1.3c3-0.9,5.6-2.2,7.9-4
	c2.3-1.8,4.1-4,5.4-6.8c1.3-2.7,2-5.9,2-9.6c0-4-0.8-7.3-2.4-9.7C1021.4-64.3,1019.4-66.3,1017-67.8z M1057.2-32.2h12.1v-28.2h30
	v-10.9h-30v-17.9h31.8v-10.9h-43.9V-32.2z M1143.3-100.2h-12.1v68h12.1V-100.2z M1224.2-100.2h-53.8v10.9h20.8v57h12.1v-57h20.8
	V-100.2z M678.9,63.4c-2.4-1.5-5-2.6-7.8-3.5c-2.8-0.8-5.4-1.7-7.8-2.6c-2.4-0.9-4.4-2-6-3.2c-1.6-1.2-2.4-3-2.4-5.3
	c0-1.5,0.3-2.9,1-4c0.6-1.1,1.5-2,2.5-2.7c1.1-0.7,2.2-1.2,3.6-1.5c1.3-0.3,2.7-0.5,4.1-0.5c2.4,0,4.6,0.4,6.8,1.3
	c2.1,0.9,3.9,2.2,5.1,4.1l8.8-9.3c-2.7-2.5-5.7-4.3-9.1-5.4c-3.4-1.1-6.8-1.6-10.4-1.6c-3.1,0-6.2,0.4-9.2,1.2c-3,0.8-5.7,2.1-8,3.8
	c-2.3,1.7-4.2,3.8-5.7,6.4c-1.4,2.6-2.2,5.6-2.2,9.1c0,4,0.8,7.2,2.4,9.6c1.6,2.4,3.6,4.3,6,5.8c2.4,1.4,5,2.6,7.8,3.4
	c2.8,0.8,5.4,1.7,7.8,2.6c2.4,0.9,4.4,2.1,6,3.4c1.6,1.3,2.4,3.3,2.4,5.8c0,1.5-0.4,2.9-1.1,4.1c-0.7,1.2-1.6,2.2-2.8,2.9
	c-1.2,0.8-2.4,1.3-3.8,1.7c-1.4,0.4-2.8,0.6-4.2,0.6c-2.7,0-5.2-0.6-7.6-1.9c-2.4-1.2-4.3-3-5.8-5.2l-9.1,8.8
	c2.8,3.3,6.2,5.7,10.1,7.1c3.9,1.4,8,2.1,12.2,2.1c3.3,0,6.5-0.4,9.5-1.3c3-0.9,5.6-2.2,7.9-4c2.3-1.8,4.1-4,5.4-6.8
	c1.3-2.7,2-5.9,2-9.6c0-4-0.8-7.3-2.4-9.7C683.3,66.8,681.3,64.8,678.9,63.4z M764.9,41.1c1.4,2.5,2.1,5.7,2.1,9.5
	c0,4.3-0.7,7.7-2.2,10.4c-1.5,2.6-3.5,4.7-6,6.1c-2.5,1.4-5.4,2.4-8.7,2.9c-3.3,0.5-6.7,0.8-10.3,0.8h-8.6v28.1h-12.1v-68h22.8
	c3.3,0,6.4,0.3,9.5,1c3,0.6,5.7,1.7,8,3.2C761.7,36.6,763.5,38.6,764.9,41.1z M754.3,50.8c0-2.1-0.4-3.8-1.3-5
	c-0.9-1.2-2-2.2-3.5-2.9c-1.4-0.7-3-1.1-4.7-1.3s-3.4-0.3-5-0.3h-8.6v19.1h7.3c1.7,0,3.5-0.1,5.4-0.2c1.9-0.1,3.6-0.5,5.1-1.2
	c1.6-0.6,2.8-1.6,3.8-2.9C753.8,54.9,754.3,53.1,754.3,50.8z M809,69.5h31.2V58.6H809V41.9h32.9V30.9h-45v68h46.8V87.9H809V69.5z
	 M907.2,30.9l29.3,68h-13.8l-6.3-15.6h-29.5l-6.1,15.6h-13.5l29.6-68H907.2z M912.1,73l-10.5-27.6L891,73H912.1z M996.5,68.8l18,30
	H1000l-15.7-28.8h-8.8v28.8h-12.1v-68h23.6c3.3,0,6.4,0.3,9.5,0.9c3,0.6,5.7,1.6,8.1,3.1c2.4,1.5,4.3,3.5,5.7,6
	c1.4,2.5,2.1,5.7,2.1,9.5c0,4.9-1.4,9.1-4.1,12.4C1005.4,66.1,1001.6,68.1,996.5,68.8z M994.7,58.3c1.4-0.6,2.6-1.5,3.5-2.8
	c0.9-1.2,1.3-3,1.3-5.2c0-2-0.4-3.6-1.2-4.8c-0.8-1.2-1.9-2.1-3.3-2.7c-1.3-0.6-2.8-1-4.5-1.2c-1.6-0.2-3.2-0.3-4.8-0.3h-10.5v18.4
	h9.4c1.7,0,3.5-0.1,5.2-0.2C991.7,59.3,993.3,58.9,994.7,58.3z M1086.8,58h-31.8V30.9H1043v68h12.1v-30h31.8v30h12.1v-68h-12.1V58z
	 M1145.4,69.5h31.2V58.6h-31.2V41.9h32.9V30.9h-45v68h46.8V87.9h-34.7V69.5z M1243.6,30.9l29.3,68h-13.8l-6.3-15.6h-29.5l-6.1,15.6
	h-13.5l29.6-68H1243.6z M1248.5,73L1238,45.3L1227.4,73H1248.5z M1361,64.9c0,5.8-1.1,10.9-3.3,15.1c-2.2,4.3-5.1,7.8-8.5,10.6
	c-3.5,2.8-7.4,4.9-11.6,6.2c-4.3,1.4-8.4,2.1-12.5,2.1h-25.3v-68h26.8c4.5,0,8.8,0.7,13,2.1c4.2,1.4,7.8,3.5,11,6.3
	c3.2,2.8,5.8,6.4,7.7,10.6C1360,54.1,1361,59.1,1361,64.9z M1348.3,64.9c0-4.1-0.6-7.6-1.9-10.6c-1.3-2.9-3.1-5.3-5.3-7.2
	c-2.3-1.8-5-3.2-8.1-4c-3.1-0.9-6.5-1.3-10.2-1.3h-11v46.1h9c3.8,0,7.3-0.4,10.7-1.3c3.4-0.9,6.3-2.2,8.8-4c2.5-1.8,4.5-4.2,5.9-7.1
	C1347.6,72.6,1348.3,69.1,1348.3,64.9z M480.3,57.8c0.1,0.1,0.2,0.1,0.3,0.2c-0.1-0.1-0.1-0.3-0.2-0.4
	C480.4,57.7,480.4,57.8,480.3,57.8z M562,68.4c7.3,10.3,14.7,20.5,22,30.8c0.3,0.4,0.9,0.7,1.3,0.3c0.8-0.6,1.6-1.1,2.4-1.7
	c0.1,0,0.1-0.1,0.1-0.2c0.3-0.3,0.5-0.7,0.2-1.2c-7.4-10.4-14.9-20.8-22.3-31.2v3.1H562z M555.4,16.1H547l12.9,28.6
	c2-5.9,3.5-12,4.4-18.2h-8.9V16.1z M597.6-100.8c-9.1,12.4-18.1,24.8-27.2,37.1c0.1,0.1,0.3,0.2,0.4,0.3c0.4,0.3,0.7,0.9,0.3,1.3
	c-0.4,0.6-0.8,1.1-1.2,1.7c-0.3,0.4-0.9,0.7-1.3,0.3c-0.5-0.3-0.9-0.7-1.4-1c-3.4,4.7-6.9,9.4-10.3,14.1c-0.8,1.1-1.7,2.3-2.5,3.4
	c1.1,2.4,2.1,4.8,3,7.3c4.7,13.1,7.5,27.5,7.9,41.9h-31v10.4L553.7,58h-8.9V47.6h-10.4v20.9h13.2c-3.6,5.2-7.5,10.2-11.8,14.9
	c-4.7,5.1-10,10.2-16.3,13.2c-2.8,1.3-3.7,0.4-6.2-1.1c-13.4-8.1-24.3-20.9-31.6-35.1c-0.4,0.5-0.7,1-1.1,1.5
	c-0.3,0.4-0.9,0.7-1.3,0.3c-0.2-0.1-0.4-0.3-0.6-0.4c-9.2,12.6-18.3,25.2-27.5,37.7c-0.3,0.4-0.9,0.7-1.3,0.3
	c-1.6-1.2-3.3-2.4-4.9-3.6c-0.4-0.3-0.7-0.9-0.3-1.3c9.2-12.6,18.5-25.2,27.7-37.8c-0.1-0.1-0.3-0.2-0.4-0.3
	c-0.4-0.3-0.7-0.9-0.3-1.3c0.4-0.6,0.8-1.1,1.2-1.7c0.3-0.4,0.9-0.7,1.3-0.3c0.4,0.3,0.9,0.6,1.3,1c0.7-1,1.5-2,2.2-3
	c-0.4-1-0.8-1.9-1.1-2.9c-11-30.5-8.9-64,4.6-93.3c-3-4.1-5.9-8.3-8.9-12.4c-0.9-1.2-1.6-2.6-2.6-3.7c-0.9-0.9-3.6-1.9-5.8-3
	c-2.6-1.3-4.7-1.7-6-4.3c-2-4.1-4-8.2-6-12.3c-3.9-8-7.8-16-11.7-24c-0.5-1,0.7-1.9,1.5-1.2c7.5,7.2,14.9,14.4,22.4,21.5
	c2.4,2.3,6.7,5.1,8.3,8c1.9,3.3,0,8.5,1.1,12.1c-0.1-0.4,0.6,0.9,1.1,1.5c1.2,1.7,2.4,3.4,3.6,5c1.8,2.5,3.6,5,5.4,7.6
	c7.4-14.6,20.1-26.7,33.4-36c0.3-0.2,0.7-0.2,1,0c13.7,9.7,25.6,21.9,33.7,36.4c3.7-5,7.4-10.1,11-15.1c-0.4-0.3-0.8-0.6-1.2-0.9
	c-0.4-0.3-0.7-0.9-0.3-1.3c0.4-0.6,0.8-1.1,1.2-1.7c0.3-0.4,0.9-0.7,1.3-0.3c0.2,0.1,0.4,0.3,0.6,0.4c9-12.3,18-24.6,27.1-37
	c0.3-0.4,0.9-0.7,1.3-0.3c1.6,1.2,3.2,2.4,4.9,3.6c0.1,0,0.1,0.1,0.1,0.1C597.8-101.8,598-101.3,597.6-100.8z M480.6,58.1
	c-0.1-0.1-0.1-0.3-0.2-0.4c0,0.1-0.1,0.1-0.1,0.2C480.4,57.9,480.5,58,480.6,58.1z M530.2,47.7h-10.5v10.4h-10.4V16.3h10.5v10.4
	h10.4V11c0-1.3-0.5-2.6-1.5-3.7c-1.1-1-2.3-1.5-3.7-1.5h-20.8c-1.4,0-2.7,0.5-3.7,1.5c-1,1.1-1.6,2.3-1.6,3.7v52.3
	c0,1.4,0.5,2.7,1.6,3.8c1,1,2.2,1.5,3.7,1.5H525c1.4,0,2.6-0.5,3.7-1.5c1-1.1,1.5-2.3,1.5-3.7V47.7z"/>
</svg>
