<?xml version="1.0" encoding="utf-8"?>
<!-- Generator: Adobe Illustrator 19.1.0, SVG Export Plug-In . SVG Version: 6.00 Build 0)  -->
<!DOCTYPE svg PUBLIC "-//W3C//DTD SVG 1.1//EN" "http://www.w3.org/Graphics/SVG/1.1/DTD/svg11.dtd">
<svg version="1.1" id="Layer_1" xmlns="http://www.w3.org/2000/svg" xmlns:xlink="http://www.w3.org/1999/xlink" x="0px" y="0px"
	 viewBox="427 -74 943.4 239" style="enable-background:new 427 -74 943.4 239;" xml:space="preserve">
<style type="text/css">
	.st0{fill:#FFFFFF;}
</style>
<path class="st0" d="M690.6-1.5l10,7.1c-3.1,4.2-6.8,7.3-11.2,9.2c-4.4,1.9-9.1,2.9-14.1,2.9c-5.2,0-10.1-0.8-14.4-2.5
	c-4.4-1.7-8.2-4.1-11.3-7.2c-3.2-3.1-5.6-6.8-7.4-11.2s-2.7-9.2-2.7-14.5c0-5.4,0.9-10.4,2.7-14.8c1.8-4.4,4.3-8.2,7.4-11.4
	c3.2-3.1,6.9-5.6,11.3-7.2c4.4-1.7,9.2-2.5,14.4-2.5c4.6,0,8.9,0.8,12.8,2.4s7.6,4.4,11,8.3l-9.4,6.9c-2.5-2.7-4.9-4.5-7.2-5.4
	c-2.3-0.9-4.7-1.3-7.1-1.3c-3.5,0-6.7,0.6-9.6,1.9c-2.8,1.2-5.3,3-7.3,5.2s-3.6,4.8-4.8,7.7c-1.1,2.9-1.7,6.1-1.7,9.5
	c0,3.6,0.6,7,1.7,10.1s2.7,5.7,4.8,8c2,2.2,4.5,4,7.3,5.3c2.8,1.3,6,1.9,9.6,1.9c2.8,0,5.4-0.7,8-2C685.9,3.5,688.3,1.4,690.6-1.5z
	 M761.1-14.1l18,30h-14.6l-15.6-28.7h-8.8V16H728v-68h23.6c3.3,0,6.4,0.3,9.5,0.9c3,0.6,5.7,1.6,8.1,3.1s4.3,3.5,5.7,6
	s2.1,5.7,2.1,9.5c0,4.9-1.4,9.1-4.1,12.4C770.1-16.8,766.2-14.8,761.1-14.1z M759.4-24.6c1.4-0.6,2.6-1.5,3.5-2.8
	c0.9-1.2,1.3-3,1.3-5.2c0-2-0.4-3.6-1.2-4.8c-0.8-1.2-1.9-2.1-3.3-2.7c-1.3-0.6-2.8-1-4.5-1.2c-1.6-0.2-3.2-0.3-4.8-0.3h-10.5v18.4
	h9.4c1.7,0,3.5-0.1,5.2-0.2C756.3-23.6,757.9-24,759.4-24.6z M865.9,7.6c-3.2,3.1-7,5.6-11.4,7.3c-4.4,1.8-9.3,2.7-14.6,2.7
	c-5.2,0-10.1-0.8-14.4-2.5c-4.4-1.7-8.2-4.1-11.3-7.2c-3.2-3.1-5.6-6.8-7.4-11.2s-2.7-9.2-2.7-14.5c0-5.4,0.9-10.4,2.7-14.8
	c1.8-4.4,4.3-8.2,7.4-11.4c3.2-3.1,6.9-5.6,11.3-7.2c4.4-1.7,9.2-2.5,14.4-2.5c5.3-0.1,10.2,0.7,14.6,2.4c4.4,1.6,8.2,4,11.4,7.2
	c3.2,3.1,5.7,6.9,7.5,11.3c1.8,4.4,2.7,9.3,2.7,14.8c0,5.3-0.9,10.1-2.7,14.5C871.6,0.7,869.1,4.5,865.9,7.6z M863.4-18.5
	c0-3.4-0.6-6.6-1.7-9.5s-2.7-5.5-4.8-7.7c-2-2.2-4.5-3.9-7.4-5.2c-2.9-1.2-6.1-1.9-9.6-1.9s-6.7,0.6-9.6,1.9c-2.8,1.2-5.3,3-7.3,5.2
	s-3.6,4.8-4.8,7.7c-1.1,2.9-1.7,6.1-1.7,9.5c0,3.6,0.6,7,1.7,10.1s2.7,5.7,4.8,8c2,2.2,4.5,4,7.3,5.3c2.8,1.3,6,1.9,9.6,1.9
	c3.5,0,6.7-0.6,9.6-1.9c2.9-1.3,5.3-3,7.4-5.3c2-2.2,3.6-4.9,4.8-8C862.8-11.5,863.4-14.9,863.4-18.5z M940.9-19.6
	c-2.4-1.5-5-2.6-7.8-3.5c-2.8-0.8-5.4-1.7-7.8-2.6s-4.4-2-6-3.2s-2.4-3-2.4-5.3c0-1.5,0.3-2.9,1-4c0.6-1.1,1.5-2,2.5-2.7
	c1.1-0.7,2.2-1.2,3.6-1.5c1.3-0.3,2.7-0.5,4.1-0.5c2.4,0,4.6,0.4,6.8,1.3c2.1,0.9,3.9,2.2,5.1,4.1l8.8-9.3c-2.7-2.5-5.7-4.3-9.1-5.4
	s-6.8-1.6-10.4-1.6c-3.1,0-6.2,0.4-9.2,1.2c-3,0.8-5.7,2.1-8,3.8c-2.3,1.7-4.2,3.8-5.7,6.4c-1.4,2.6-2.2,5.6-2.2,9.1
	c0,4,0.8,7.2,2.4,9.6c1.6,2.4,3.6,4.3,6,5.8c2.4,1.4,5,2.6,7.8,3.4c2.8,0.8,5.4,1.7,7.8,2.6c2.4,0.9,4.4,2.1,6,3.4
	c1.6,1.3,2.4,3.3,2.4,5.8c0,1.5-0.4,2.9-1.1,4.1c-0.7,1.2-1.6,2.2-2.8,2.9c-1.2,0.8-2.4,1.3-3.8,1.7c-1.4,0.4-2.8,0.6-4.2,0.6
	c-2.7,0-5.2-0.6-7.6-1.9c-2.4-1.2-4.3-3-5.8-5.2l-9.1,8.8c2.8,3.3,6.2,5.7,10.1,7.1c3.9,1.4,8,2.1,12.2,2.1c3.3,0,6.5-0.4,9.5-1.3
	s5.6-2.2,7.9-4s4.1-4,5.4-6.8c1.3-2.7,2-5.9,2-9.6c0-4-0.8-7.3-2.4-9.7C945.3-16.1,943.3-18.1,940.9-19.6z M1015.2-19.6
	c-2.4-1.5-5-2.6-7.8-3.5c-2.8-0.8-5.4-1.7-7.8-2.6c-2.4-0.9-4.4-2-6-3.2s-2.4-3-2.4-5.3c0-1.5,0.3-2.9,1-4c0.6-1.1,1.5-2,2.5-2.7
	c1.1-0.7,2.2-1.2,3.6-1.5c1.3-0.3,2.7-0.5,4.1-0.5c2.4,0,4.6,0.4,6.8,1.3c2.1,0.9,3.9,2.2,5.1,4.1l8.8-9.3c-2.7-2.5-5.7-4.3-9.1-5.4
	c-3.4-1.1-6.8-1.6-10.4-1.6c-3.1,0-6.2,0.4-9.2,1.2c-3,0.8-5.7,2.1-8,3.8c-2.3,1.7-4.2,3.8-5.7,6.4c-1.4,2.6-2.2,5.6-2.2,9.1
	c0,4,0.8,7.2,2.4,9.6s3.6,4.3,6,5.8c2.4,1.4,5,2.6,7.8,3.4c2.8,0.8,5.4,1.7,7.8,2.6c2.4,0.9,4.4,2.1,6,3.4c1.6,1.3,2.4,3.3,2.4,5.8
	c0,1.5-0.4,2.9-1.1,4.1c-0.7,1.2-1.6,2.2-2.8,2.9c-1.2,0.8-2.4,1.3-3.8,1.7s-2.8,0.6-4.2,0.6c-2.7,0-5.2-0.6-7.6-1.9
	c-2.4-1.2-4.3-3-5.8-5.2l-9.1,8.8c2.8,3.3,6.2,5.7,10.1,7.1c3.9,1.4,8,2.1,12.2,2.1c3.3,0,6.5-0.4,9.5-1.3s5.6-2.2,7.9-4
	c2.3-1.8,4.1-4,5.4-6.8c1.3-2.7,2-5.9,2-9.6c0-4-0.8-7.3-2.4-9.7C1019.6-16.1,1017.6-18.1,1015.2-19.6z M1055.4,16h12.1v-28.2h30
	v-10.9h-30V-41h31.8v-10.9h-43.9V16z M1141.5-52h-12.1v68h12.1V-52z M1222.4-52h-53.8v10.9h20.8v57h12.1v-57h20.8L1222.4-52
	L1222.4-52z M677.1,111.6c-2.4-1.5-5-2.6-7.8-3.5c-2.8-0.8-5.4-1.7-7.8-2.6c-2.4-0.9-4.4-2-6-3.2c-1.6-1.2-2.4-3-2.4-5.3
	c0-1.5,0.3-2.9,1-4c0.6-1.1,1.5-2,2.5-2.7c1.1-0.7,2.2-1.2,3.6-1.5c1.3-0.3,2.7-0.5,4.1-0.5c2.4,0,4.6,0.4,6.8,1.3
	c2.1,0.9,3.9,2.2,5.1,4.1l8.8-9.3c-2.7-2.5-5.7-4.3-9.1-5.4c-3.4-1.1-6.8-1.6-10.4-1.6c-3.1,0-6.2,0.4-9.2,1.2c-3,0.8-5.7,2.1-8,3.8
	c-2.3,1.7-4.2,3.8-5.7,6.4c-1.4,2.6-2.2,5.6-2.2,9.1c0,4,0.8,7.2,2.4,9.6c1.6,2.4,3.6,4.3,6,5.8c2.4,1.4,5,2.6,7.8,3.4
	c2.8,0.8,5.4,1.7,7.8,2.6c2.4,0.9,4.4,2.1,6,3.4s2.4,3.3,2.4,5.8c0,1.5-0.4,2.9-1.1,4.1s-1.6,2.2-2.8,2.9c-1.2,0.8-2.4,1.3-3.8,1.7
	s-2.8,0.6-4.2,0.6c-2.7,0-5.2-0.6-7.6-1.9c-2.4-1.2-4.3-3-5.8-5.2l-9.1,8.8c2.8,3.3,6.2,5.7,10.1,7.1c3.9,1.4,8,2.1,12.2,2.1
	c3.3,0,6.5-0.4,9.5-1.3c3-0.9,5.6-2.2,7.9-4c2.3-1.8,4.1-4,5.4-6.8c1.3-2.7,2-5.9,2-9.6c0-4-0.8-7.3-2.4-9.7
	C681.5,115,679.5,113,677.1,111.6z M763.1,89.3c1.4,2.5,2.1,5.7,2.1,9.5c0,4.3-0.7,7.7-2.2,10.4c-1.5,2.6-3.5,4.7-6,6.1
	s-5.4,2.4-8.7,2.9c-3.3,0.5-6.7,0.8-10.3,0.8h-8.6v28.1h-12.1v-68h22.8c3.3,0,6.4,0.3,9.5,1c3,0.6,5.7,1.7,8,3.2
	C759.9,84.8,761.7,86.8,763.1,89.3z M752.5,99c0-2.1-0.4-3.8-1.3-5c-0.9-1.2-2-2.2-3.5-2.9c-1.4-0.7-3-1.1-4.7-1.3
	c-1.7-0.2-3.4-0.3-5-0.3h-8.6v19.1h7.3c1.7,0,3.5-0.1,5.4-0.2c1.9-0.1,3.6-0.5,5.1-1.2c1.6-0.6,2.8-1.6,3.8-2.9
	C752,103.1,752.5,101.3,752.5,99z M807.2,117.7h31.2v-10.9h-31.2V90.1h32.9v-11h-45v68h46.8v-11h-34.7V117.7z M905.4,79.1l29.3,68
	h-13.8l-6.3-15.6h-29.5l-6.1,15.6h-13.5l29.6-68C895.1,79.1,905.4,79.1,905.4,79.1z M910.3,121.2l-10.5-27.6l-10.6,27.6H910.3z
	 M994.7,117l18,30h-14.5l-15.7-28.8h-8.8V147h-12.1V79h23.6c3.3,0,6.4,0.3,9.5,0.9c3,0.6,5.7,1.6,8.1,3.1s4.3,3.5,5.7,6
	s2.1,5.7,2.1,9.5c0,4.9-1.4,9.1-4.1,12.4C1003.6,114.3,999.8,116.3,994.7,117z M992.9,106.5c1.4-0.6,2.6-1.5,3.5-2.8
	c0.9-1.2,1.3-3,1.3-5.2c0-2-0.4-3.6-1.2-4.8c-0.8-1.2-1.9-2.1-3.3-2.7c-1.3-0.6-2.8-1-4.5-1.2c-1.6-0.2-3.2-0.3-4.8-0.3h-10.5v18.4
	h9.4c1.7,0,3.5-0.1,5.2-0.2C989.9,107.5,991.5,107.1,992.9,106.5z M1085,106.2h-31.8V79.1h-12v68h12.1v-30h31.8v30h12.1v-68h-12.1
	L1085,106.2L1085,106.2z M1143.6,117.7h31.2v-10.9h-31.2V90.1h32.9v-11h-45v68h46.8v-11h-34.7L1143.6,117.7L1143.6,117.7z
	 M1241.8,79.1l29.3,68h-13.8l-6.3-15.6h-29.5l-6.1,15.6h-13.5l29.6-68C1231.5,79.1,1241.8,79.1,1241.8,79.1z M1246.7,121.2
	l-10.5-27.7l-10.6,27.7H1246.7z M1359.2,113.1c0,5.8-1.1,10.9-3.3,15.1c-2.2,4.3-5.1,7.8-8.5,10.6c-3.5,2.8-7.4,4.9-11.6,6.2
	c-4.3,1.4-8.4,2.1-12.5,2.1H1298v-68h26.8c4.5,0,8.8,0.7,13,2.1s7.8,3.5,11,6.3c3.2,2.8,5.8,6.4,7.7,10.6
	C1358.2,102.3,1359.2,107.3,1359.2,113.1z M1346.5,113.1c0-4.1-0.6-7.6-1.9-10.6c-1.3-2.9-3.1-5.3-5.3-7.2c-2.3-1.8-5-3.2-8.1-4
	c-3.1-0.9-6.5-1.3-10.2-1.3h-11v46.1h9c3.8,0,7.3-0.4,10.7-1.3c3.4-0.9,6.3-2.2,8.8-4c2.5-1.8,4.5-4.2,5.9-7.1
	C1345.8,120.8,1346.5,117.3,1346.5,113.1z M478.5,106c0.1,0.1,0.2,0.1,0.3,0.2c-0.1-0.1-0.1-0.3-0.2-0.4
	C478.6,105.9,478.6,106,478.5,106z M560.2,116.6c7.3,10.3,14.7,20.5,22,30.8c0.3,0.4,0.9,0.7,1.3,0.3c0.8-0.6,1.6-1.1,2.4-1.7
	c0.1,0,0.1-0.1,0.1-0.2c0.3-0.3,0.5-0.7,0.2-1.2c-7.4-10.4-14.9-20.8-22.3-31.2v3.1L560.2,116.6L560.2,116.6z M553.6,64.3h-8.4
	l12.9,28.6c2-5.9,3.5-12,4.4-18.2h-8.9V64.3z M595.8-52.6c-9.1,12.4-18.1,24.8-27.2,37.1c0.1,0.1,0.3,0.2,0.4,0.3
	c0.4,0.3,0.7,0.9,0.3,1.3c-0.4,0.6-0.8,1.1-1.2,1.7c-0.3,0.4-0.9,0.7-1.3,0.3c-0.5-0.3-0.9-0.7-1.4-1c-3.4,4.7-6.9,9.4-10.3,14.1
	c-0.8,1.1-1.7,2.3-2.5,3.4c1.1,2.4,2.1,4.8,3,7.3c4.7,13.1,7.5,27.5,7.9,41.9h-31v10.4l19.4,42H543V95.8h-10.4v20.9h13.2
	c-3.6,5.2-7.5,10.2-11.8,14.9c-4.7,5.1-10,10.2-16.3,13.2c-2.8,1.3-3.7,0.4-6.2-1.1c-13.4-8.1-24.3-20.9-31.6-35.1
	c-0.4,0.5-0.7,1-1.1,1.5c-0.3,0.4-0.9,0.7-1.3,0.3c-0.2-0.1-0.4-0.3-0.6-0.4c-9.2,12.6-18.3,25.2-27.5,37.7
	c-0.3,0.4-0.9,0.7-1.3,0.3c-1.6-1.2-3.3-2.4-4.9-3.6c-0.4-0.3-0.7-0.9-0.3-1.3c9.2-12.6,18.5-25.2,27.7-37.8
	c-0.1-0.1-0.3-0.2-0.4-0.3c-0.4-0.3-0.7-0.9-0.3-1.3c0.4-0.6,0.8-1.1,1.2-1.7c0.3-0.4,0.9-0.7,1.3-0.3c0.4,0.3,0.9,0.6,1.3,1
	c0.7-1,1.5-2,2.2-3c-0.4-1-0.8-1.9-1.1-2.9c-11-30.5-8.9-64,4.6-93.3c-3-4.1-5.9-8.3-8.9-12.4c-0.9-1.2-1.6-2.6-2.6-3.7
	c-0.9-0.9-3.6-1.9-5.8-3c-2.6-1.3-4.7-1.7-6-4.3c-2-4.1-4-8.2-6-12.3c-3.9-8-7.8-16-11.7-24c-0.5-1,0.7-1.9,1.5-1.2
	c7.5,7.2,14.9,14.4,22.4,21.5c2.4,2.3,6.7,5.1,8.3,8c1.9,3.3,0,8.5,1.1,12.1c-0.1-0.4,0.6,0.9,1.1,1.5c1.2,1.7,2.4,3.4,3.6,5
	c1.8,2.5,3.6,5,5.4,7.6c7.4-14.6,20.1-26.7,33.4-36c0.3-0.2,0.7-0.2,1,0c13.7,9.7,25.6,21.9,33.7,36.4c3.7-5,7.4-10.1,11-15.1
	c-0.4-0.3-0.8-0.6-1.2-0.9s-0.7-0.9-0.3-1.3c0.4-0.6,0.8-1.1,1.2-1.7c0.3-0.4,0.9-0.7,1.3-0.3c0.2,0.1,0.4,0.3,0.6,0.4
	c9-12.3,18-24.6,27.1-37c0.3-0.4,0.9-0.7,1.3-0.3c1.6,1.2,3.2,2.4,4.9,3.6c0.1,0,0.1,0.1,0.1,0.1C596-53.6,596.2-53.1,595.8-52.6z
	 M478.8,106.3c-0.1-0.1-0.1-0.3-0.2-0.4c0,0.1-0.1,0.1-0.1,0.2C478.6,106.1,478.7,106.2,478.8,106.3z M528.4,95.9h-10.5v10.4h-10.4
	V64.5H518v10.4h10.4V59.2c0-1.3-0.5-2.6-1.5-3.7c-1.1-1-2.3-1.5-3.7-1.5h-20.8c-1.4,0-2.7,0.5-3.7,1.5c-1,1.1-1.6,2.3-1.6,3.7v52.3
	c0,1.4,0.5,2.7,1.6,3.8c1,1,2.2,1.5,3.7,1.5h20.8c1.4,0,2.6-0.5,3.7-1.5c1-1.1,1.5-2.3,1.5-3.7V95.9z"/>
</svg>
