<?xml version="1.0" encoding="UTF-8" standalone="no"?><!DOCTYPE svg PUBLIC "-//W3C//DTD SVG 1.1//EN" "http://www.w3.org/Graphics/SVG/1.1/DTD/svg11.dtd"><svg width="100%" height="100%" viewBox="0 0 2295 851" version="1.1" xmlns="http://www.w3.org/2000/svg" xmlns:xlink="http://www.w3.org/1999/xlink" xml:space="preserve" xmlns:serif="http://www.serif.com/" style="fill-rule:evenodd;clip-rule:evenodd;stroke-linejoin:round;stroke-miterlimit:2;"><rect id="White" x="0" y="0.875" width="2294.19" height="850" style="fill:none;"/><g id="Layer-1" serif:id="Layer 1"><path d="M1446.39,517.654c-2.779,-4.029 -6.496,-6.981 -11.15,-8.857c-4.655,-1.876 -9.552,-2.814 -14.693,-2.814c-3.057,0 -6.009,0.348 -8.858,1.042c-2.848,0.695 -5.418,1.807 -7.711,3.335c-2.293,1.528 -4.134,3.508 -5.523,5.94c-1.389,2.431 -2.084,5.314 -2.084,8.649c0,5.002 1.737,8.823 5.21,11.463c3.474,2.64 7.781,4.932 12.922,6.877c5.141,1.945 10.768,3.821 16.881,5.627c6.114,1.807 11.741,4.308 16.882,7.503c5.141,3.196 9.448,7.434 12.921,12.713c3.474,5.28 5.211,12.297 5.211,21.05c0,7.92 -1.459,14.832 -4.377,20.737c-2.918,5.905 -6.843,10.803 -11.775,14.693c-4.933,3.891 -10.664,6.809 -17.194,8.754c-6.531,1.945 -13.408,2.917 -20.633,2.917c-9.17,0 -17.993,-1.528 -26.469,-4.585c-8.475,-3.056 -15.77,-8.197 -21.883,-15.422l19.799,-19.174c3.196,4.863 7.399,8.649 12.609,11.358c5.21,2.71 10.733,4.064 16.569,4.064c3.057,0 6.113,-0.416 9.17,-1.25c3.057,-0.834 5.836,-2.084 8.337,-3.751c2.501,-1.668 4.515,-3.787 6.044,-6.357c1.528,-2.571 2.292,-5.523 2.292,-8.858c0,-5.418 -1.737,-9.587 -5.21,-12.504c-3.474,-2.918 -7.781,-5.384 -12.922,-7.399c-5.141,-2.015 -10.768,-3.925 -16.881,-5.731c-6.114,-1.807 -11.741,-4.273 -16.882,-7.399c-5.141,-3.126 -9.448,-7.295 -12.921,-12.505c-3.474,-5.21 -5.211,-12.192 -5.211,-20.945c0,-7.642 1.564,-14.242 4.69,-19.8c3.126,-5.557 7.225,-10.177 12.296,-13.859c5.071,-3.682 10.872,-6.426 17.403,-8.232c6.53,-1.807 13.199,-2.71 20.007,-2.71c7.781,0 15.319,1.181 22.613,3.543c7.294,2.362 13.859,6.253 19.695,11.671l-19.174,20.216Zm161.312,0c-2.779,-4.029 -6.496,-6.981 -11.15,-8.857c-4.655,-1.876 -9.553,-2.814 -14.694,-2.814c-3.056,0 -6.009,0.348 -8.857,1.042c-2.848,0.695 -5.419,1.807 -7.711,3.335c-2.293,1.528 -4.134,3.508 -5.523,5.94c-1.39,2.431 -2.084,5.314 -2.084,8.649c0,5.002 1.736,8.823 5.21,11.463c3.473,2.64 7.781,4.932 12.921,6.877c5.141,1.945 10.768,3.821 16.882,5.627c6.113,1.807 11.74,4.308 16.881,7.503c5.141,3.196 9.448,7.434 12.922,12.713c3.473,5.28 5.21,12.297 5.21,21.05c0,7.92 -1.459,14.832 -4.376,20.737c-2.918,5.905 -6.843,10.803 -11.776,14.693c-4.932,3.891 -10.664,6.809 -17.194,8.754c-6.53,1.945 -13.408,2.917 -20.633,2.917c-9.17,0 -17.993,-1.528 -26.468,-4.585c-8.476,-3.056 -15.77,-8.197 -21.883,-15.422l19.799,-19.174c3.195,4.863 7.398,8.649 12.609,11.358c5.21,2.71 10.733,4.064 16.569,4.064c3.056,0 6.113,-0.416 9.17,-1.25c3.056,-0.834 5.835,-2.084 8.336,-3.751c2.501,-1.668 4.516,-3.787 6.044,-6.357c1.529,-2.571 2.293,-5.523 2.293,-8.858c0,-5.418 -1.737,-9.587 -5.211,-12.504c-3.473,-2.918 -7.78,-5.384 -12.921,-7.399c-5.141,-2.015 -10.768,-3.925 -16.882,-5.731c-6.113,-1.807 -11.74,-4.273 -16.881,-7.399c-5.141,-3.126 -9.448,-7.295 -12.922,-12.505c-3.473,-5.21 -5.21,-12.192 -5.21,-20.945c0,-7.642 1.563,-14.242 4.689,-19.8c3.127,-5.557 7.225,-10.177 12.297,-13.859c5.071,-3.682 10.872,-6.426 17.402,-8.232c6.53,-1.807 13.2,-2.71 20.008,-2.71c7.781,0 15.318,1.181 22.613,3.543c7.294,2.362 13.859,6.253 19.695,11.671l-19.174,20.216Zm-871.792,-31.678l26.26,0l0,147.556l-26.26,0l0,-147.556Zm-160.686,0l95.245,0l0,23.759l-68.985,0l0,38.765l65.025,0l0,23.759l-65.025,0l0,61.273l-26.26,0l0,-147.556Zm629.824,0l97.746,0l0,23.759l-71.486,0l0,36.264l67.734,0l0,23.759l-67.734,0l0,40.015l75.237,0l0,23.759l-101.497,0l0,-147.556Zm-338.671,23.759l-45.226,0l0,-23.759l116.712,0l0,23.759l-45.226,0l0,123.797l-26.26,0l0,-123.797Zm131.092,-23.759l34.805,0l71.485,109.625l0.417,0l0,-109.625l26.26,0l0,147.556l-33.346,0l-72.945,-113.168l-0.416,0l0,113.168l-26.26,0l0,-147.556Zm-349.926,-253.014c-2.779,-4.029 -6.495,-6.981 -11.15,-8.857c-4.654,-1.876 -9.552,-2.814 -14.693,-2.814c-3.057,0 -6.009,0.348 -8.857,1.042c-2.849,0.695 -5.419,1.807 -7.712,3.335c-2.292,1.528 -4.133,3.508 -5.523,5.94c-1.389,2.431 -2.084,5.314 -2.084,8.649c0,5.002 1.737,8.823 5.211,11.463c3.473,2.639 7.78,4.932 12.921,6.877c5.141,1.945 10.768,3.821 16.882,5.627c6.113,1.807 11.74,4.308 16.881,7.503c5.141,3.196 9.448,7.434 12.922,12.713c3.473,5.28 5.21,12.297 5.21,21.05c0,7.92 -1.459,14.832 -4.377,20.737c-2.917,5.905 -6.843,10.803 -11.775,14.693c-4.932,3.891 -10.664,6.808 -17.194,8.754c-6.53,1.945 -13.408,2.917 -20.633,2.917c-9.17,0 -17.993,-1.528 -26.468,-4.585c-8.476,-3.056 -15.77,-8.197 -21.884,-15.422l19.799,-19.174c3.196,4.863 7.399,8.649 12.609,11.358c5.211,2.71 10.734,4.064 16.569,4.064c3.057,0 6.114,-0.416 9.17,-1.25c3.057,-0.834 5.836,-2.084 8.337,-3.752c2.501,-1.667 4.516,-3.786 6.044,-6.356c1.528,-2.571 2.292,-5.523 2.292,-8.858c0,-5.418 -1.736,-9.587 -5.21,-12.504c-3.473,-2.918 -7.781,-5.384 -12.921,-7.399c-5.141,-2.015 -10.768,-3.925 -16.882,-5.731c-6.113,-1.807 -11.741,-4.273 -16.881,-7.399c-5.141,-3.126 -9.448,-7.295 -12.922,-12.505c-3.474,-5.21 -5.21,-12.192 -5.21,-20.945c0,-7.642 1.563,-14.242 4.689,-19.8c3.126,-5.557 7.225,-10.177 12.296,-13.859c5.072,-3.682 10.873,-6.426 17.403,-8.232c6.53,-1.807 13.199,-2.71 20.007,-2.71c7.781,0 15.319,1.181 22.613,3.543c7.295,2.362 13.86,6.253 19.695,11.671l-19.174,20.216Zm1349.47,-31.678l58.147,0c9.726,0 19.105,1.493 28.136,4.481c9.031,2.987 17.02,7.537 23.967,13.651c6.947,6.113 12.505,13.79 16.673,23.029c4.169,9.24 6.253,20.112 6.253,32.617c0,12.644 -2.397,23.585 -7.19,32.825c-4.794,9.24 -10.977,16.881 -18.549,22.925c-7.573,6.044 -15.979,10.56 -25.218,13.547c-9.24,2.987 -18.306,4.481 -27.198,4.481l-55.021,0l0,-147.556Zm-557.296,0l26.26,0l0,58.772l68.985,0l0,-58.772l26.26,0l0,147.556l-26.26,0l0,-65.025l-68.985,0l0,65.025l-26.26,0l0,-147.556Zm-317.413,0l22.717,0l63.566,147.556l-30.012,0l-13.755,-33.763l-63.983,0l-13.338,33.763l-29.386,0l64.191,-147.556Zm730.279,0l22.717,0l63.566,147.556l-30.012,0l-13.755,-33.763l-63.983,0l-13.338,33.763l-29.386,0l64.191,-147.556Zm-1116.05,0l49.602,0c7.086,0 13.929,0.694 20.529,2.084c6.599,1.389 12.4,3.716 17.402,6.982c5.002,3.265 8.997,7.641 11.984,13.13c2.987,5.488 4.481,12.331 4.481,20.528c0,9.309 -1.598,16.812 -4.794,22.509c-3.195,5.697 -7.503,10.108 -12.921,13.234c-5.419,3.126 -11.706,5.245 -18.862,6.357c-7.155,1.111 -14.623,1.667 -22.404,1.667l-18.757,0l0,61.065l-26.26,0l0,-147.556Zm899.301,0l97.746,0l0,23.759l-71.486,0l0,36.264l67.735,0l0,23.759l-67.735,0l0,40.015l75.237,0l0,23.759l-101.497,0l0,-147.556Zm-730.278,0l97.745,0l0,23.759l-71.485,0l0,36.264l67.734,0l0,23.759l-67.734,0l0,40.015l75.237,0l0,23.759l-101.497,0l0,-147.556Zm361.179,0l51.27,0c7.086,0 13.929,0.66 20.528,1.98c6.6,1.32 12.47,3.577 17.611,6.773c5.141,3.196 9.24,7.503 12.297,12.922c3.056,5.418 4.585,12.296 4.585,20.632c0,10.699 -2.953,19.661 -8.858,26.886c-5.905,7.225 -14.346,11.601 -25.322,13.13l39.182,65.233l-31.679,0l-34.18,-62.524l-19.174,0l0,62.524l-26.26,0l0,-147.556Zm776.13,123.797c8.197,0 15.943,-0.938 23.238,-2.814c7.294,-1.875 13.651,-4.793 19.07,-8.753c5.418,-3.96 9.691,-9.101 12.817,-15.423c3.126,-6.321 4.689,-13.998 4.689,-23.029c0,-8.892 -1.389,-16.534 -4.168,-22.926c-2.779,-6.391 -6.634,-11.567 -11.567,-15.526c-4.932,-3.96 -10.768,-6.878 -17.507,-8.754c-6.738,-1.875 -14.137,-2.813 -22.196,-2.813l-23.967,0l0,100.038l19.591,0Zm-887.214,-32.512l-22.717,-60.023l-23.134,60.023l45.851,0Zm730.279,0l-22.717,-60.023l-23.134,60.023l45.851,0Zm-1107.3,-27.303c3.751,0 7.642,-0.139 11.671,-0.416c4.029,-0.278 7.746,-1.112 11.15,-2.501c3.404,-1.39 6.183,-3.474 8.337,-6.253c2.153,-2.779 3.23,-6.669 3.23,-11.671c0,-4.585 -0.972,-8.232 -2.918,-10.942c-1.945,-2.709 -4.446,-4.793 -7.502,-6.252c-3.057,-1.459 -6.461,-2.397 -10.213,-2.814c-3.751,-0.416 -7.364,-0.625 -10.837,-0.625l-18.757,0l0,41.474l15.839,0Zm534.788,-1.458c3.751,0 7.502,-0.174 11.254,-0.521c3.751,-0.348 7.19,-1.181 10.316,-2.501c3.127,-1.32 5.662,-3.335 7.607,-6.044c1.946,-2.71 2.918,-6.496 2.918,-11.359c0,-4.307 -0.903,-7.781 -2.709,-10.421c-1.806,-2.639 -4.168,-4.619 -7.086,-5.939c-2.918,-1.32 -6.148,-2.189 -9.691,-2.606c-3.543,-0.416 -6.982,-0.625 -10.317,-0.625l-22.717,0l0,40.016l20.425,0Z" style="fill:#fff;fill-rule:nonzero;"/><path d="M400.408,477.233c-2.932,19.418 -8.251,38.318 -16.263,56.016l68.036,95.259c0.688,0.963 0.372,1.905 -0.329,2.473c-0.116,0.136 -0.254,0.262 -0.417,0.377c-1.737,1.229 -3.475,2.458 -5.208,3.687c-0.987,0.696 -2.242,0.105 -2.85,-0.745l-48.179,-67.459l-16.326,-22.858c-1.123,2.115 -2.293,4.216 -3.505,6.295c-10.3,17.667 -22.73,34.333 -36.55,49.396c-10.13,11.033 -21.646,22.104 -35.342,28.579c-6.025,2.85 -8.046,0.975 -13.517,-2.342c-28.774,-17.441 -52.39,-44.971 -68.314,-75.413l-1.711,2.338c-0.608,0.829 -1.879,1.459 -2.85,0.746l-1.262,-0.924c-19.896,27.311 -39.798,54.626 -59.696,81.945c-0.605,0.829 -1.88,1.458 -2.85,0.746c-3.575,-2.613 -7.146,-5.229 -10.717,-7.842c-0.833,-0.608 -1.463,-1.879 -0.75,-2.85c20.043,-27.388 40.082,-54.777 60.12,-82.163l-0.92,-0.674c-0.829,-0.609 -1.458,-1.88 -0.75,-2.85l2.658,-3.63c0.609,-0.833 1.879,-1.462 2.85,-0.75l2.824,2.067l4.09,-5.584c-0.954,-2.375 -1.862,-4.759 -2.722,-7.149c-23.806,-66.196 -19.35,-139.095 9.84,-202.665l-19.221,-26.909c-1.858,-2.6 -3.567,-5.717 -5.75,-8.05c-1.896,-2.03 -7.917,-4.217 -12.662,-6.513c-5.725,-2.767 -10.3,-3.696 -13.092,-9.258c-4.433,-8.834 -8.638,-17.784 -12.954,-26.671c-8.446,-17.388 -16.892,-34.775 -25.338,-52.158c-1.016,-2.092 1.513,-4.221 3.271,-2.525c16.175,15.587 32.35,31.175 48.525,46.758c5.208,5.017 14.479,11.058 18.079,17.421c4.063,7.179 -0.004,18.375 2.363,26.233c-0.292,-0.967 1.341,1.938 2.341,3.342c2.605,3.646 5.209,7.291 7.813,10.937l11.714,16.4c16.171,-31.737 43.575,-57.865 72.471,-78.063c0.563,-0.392 1.546,-0.396 2.104,0c30.066,21.198 56.097,47.952 73.686,79.862l24.528,-33.475c-0.883,-0.646 -1.765,-1.291 -2.647,-1.937c-0.244,-0.179 -0.457,-0.4 -0.63,-0.648c-0.454,-0.653 -0.613,-1.53 -0.12,-2.202c0.886,-1.21 1.771,-2.42 2.658,-3.629c0.298,-0.407 0.721,-0.736 1.192,-0.917c0.556,-0.213 1.171,-0.185 1.658,0.171c0.423,0.308 0.945,1.337 1.267,0.925c10.205,-13.063 19.575,-26.756 29.363,-40.133c9.787,-13.377 19.574,-26.754 29.362,-40.13c0.623,-0.851 1.906,-1.44 2.85,-0.75c1.758,1.287 3.515,2.574 5.273,3.86c1.757,1.286 3.515,2.571 5.273,3.857c0.143,0.105 0.254,0.233 0.384,0.352c0.127,0.117 0.257,0.219 0.367,0.355c0.526,0.65 0.477,1.484 -0.006,2.143c-19.658,26.87 -39.627,53.517 -58.978,80.61c-0.221,0.309 0.614,0.448 0.92,0.673c0.585,0.43 1.046,1.138 1.056,1.879c0.004,0.349 -0.104,0.689 -0.31,0.971c-0.885,1.21 -1.769,2.42 -2.654,3.63c-0.239,0.326 -0.557,0.598 -0.913,0.788c-0.616,0.329 -1.358,0.381 -1.937,-0.043c-0.999,-0.729 -2.087,-3.028 -2.995,-2.189c-4.64,4.286 -7.459,10.195 -11.189,15.293c-3.73,5.098 -7.46,10.195 -11.191,15.292l-6.029,8.24c2.239,4.877 4.286,9.871 6.125,14.973c10.602,29.409 16.884,61.901 17.363,94.393c-1.98,-1.697 -4.348,-2.524 -7.07,-2.524l-45.152,0c-3.136,0 -5.801,1.097 -7.996,3.292c-2.195,2.195 -3.292,4.86 -3.292,7.996l0,124.545l22.576,0l0,-57.946l20.318,0l0,-19.942l-20.318,0l0,-35.181l22.576,0l0,22.576l15.578,0Zm-139.747,-45.34l67.729,0l0,45.34l-22.577,0l0,-22.576l-22.576,0l45.153,90.305l0,22.764l-67.729,0l0,-45.341l22.576,0l0,22.577l22.576,0l-45.152,-90.305l0,-22.764Z" style="fill:#fff;"/></g></svg>